<?xml version="1.0" encoding="UTF-8"?>
<!DOCTYPE svg PUBLIC "-//W3C//DTD SVG 1.1//EN" "http://www.w3.org/Graphics/SVG/1.1/DTD/svg11.dtd">
<!-- Creator: CorelDRAW -->
<svg xmlns="http://www.w3.org/2000/svg" xml:space="preserve" width="100px" height="76px" version="1.1" style="shape-rendering:geometricPrecision; text-rendering:geometricPrecision; image-rendering:optimizeQuality; fill-rule:evenodd; clip-rule:evenodd"
viewBox="0 0 100 76.37"
 xmlns:xlink="http://www.w3.org/1999/xlink"
 xmlns:xodm="http://www.corel.com/coreldraw/odm/2003">
 <defs>
  <style type="text/css">
   <![CDATA[
    .fil2 {fill:#035985;fill-rule:nonzero}
    .fil12 {fill:#47B6C8;fill-rule:nonzero}
    .fil9 {fill:white;fill-rule:nonzero}
    .fil1 {fill:url(#id0);fill-rule:nonzero}
    .fil11 {fill:url(#id1);fill-rule:nonzero}
    .fil5 {fill:url(#id2);fill-rule:nonzero}
    .fil7 {fill:url(#id3);fill-rule:nonzero}
    .fil8 {fill:url(#id4);fill-rule:nonzero}
    .fil6 {fill:url(#id5);fill-rule:nonzero}
    .fil3 {fill:url(#id6);fill-rule:nonzero}
    .fil0 {fill:url(#id7);fill-rule:nonzero}
    .fil4 {fill:url(#id8);fill-rule:nonzero}
    .fil10 {fill:url(#id9);fill-rule:nonzero}
   ]]>
  </style>
  <linearGradient id="id0" gradientUnits="userSpaceOnUse" x1="90.95" y1="59.17" x2="90.95" y2="24.55">
   <stop offset="0" style="stop-opacity:1; stop-color:#0B4369"/>
   <stop offset="0.6" style="stop-opacity:1; stop-color:#3693C8"/>
   <stop offset="1" style="stop-opacity:1; stop-color:#4DBAC6"/>
  </linearGradient>
  <linearGradient id="id1" gradientUnits="userSpaceOnUse" x1="169.09" y1="2.29" x2="166.82" y2="2.29">
   <stop offset="0" style="stop-opacity:0.501961; stop-color:#39628A"/>
   <stop offset="0.109804" style="stop-opacity:0.588235; stop-color:#386B95"/>
   <stop offset="0.329412" style="stop-opacity:0.831373; stop-color:#3782B2"/>
   <stop offset="0.478431" style="stop-opacity:1; stop-color:#3693C8"/>
   <stop offset="1" style="stop-opacity:1; stop-color:#4DBAC6"/>
  </linearGradient>
  <linearGradient id="id2" gradientUnits="userSpaceOnUse" x1="113.21" y1="27.22" x2="101.83" y2="48.59">
   <stop offset="0" style="stop-opacity:1; stop-color:#39628A"/>
   <stop offset="0.211765" style="stop-opacity:1; stop-color:#3775A2"/>
   <stop offset="0.478431" style="stop-opacity:1; stop-color:#3693C8"/>
   <stop offset="1" style="stop-opacity:1; stop-color:#4DBAC6"/>
  </linearGradient>
  <linearGradient id="id3" gradientUnits="userSpaceOnUse" x1="176.73" y1="11.02" x2="173.27" y2="11.02">
   <stop offset="0" style="stop-opacity:1; stop-color:#4DBAC6"/>
   <stop offset="0.141176" style="stop-opacity:1; stop-color:#54BCC8"/>
   <stop offset="0.341176" style="stop-opacity:1; stop-color:#68C4D0"/>
   <stop offset="0.580392" style="stop-opacity:1; stop-color:#88D1DC"/>
   <stop offset="0.85098" style="stop-opacity:1; stop-color:#B6E2ED"/>
   <stop offset="0.988235" style="stop-opacity:1; stop-color:#D1EDF8"/>
   <stop offset="1" style="stop-opacity:1; stop-color:#D1EDF8"/>
  </linearGradient>
  <linearGradient id="id4" gradientUnits="userSpaceOnUse" x1="133.81" y1="33.05" x2="124.46" y2="33.05">
   <stop offset="0" style="stop-opacity:1; stop-color:#4DBAC6"/>
   <stop offset="0.270588" style="stop-opacity:1; stop-color:#4DBAC6"/>
   <stop offset="0.4" style="stop-opacity:1; stop-color:#50BBC7"/>
   <stop offset="0.521569" style="stop-opacity:1; stop-color:#5CC0CB"/>
   <stop offset="0.65098" style="stop-opacity:1; stop-color:#70C7D3"/>
   <stop offset="0.768627" style="stop-opacity:1; stop-color:#8BD2DD"/>
   <stop offset="0.890196" style="stop-opacity:1; stop-color:#AEDFEA"/>
   <stop offset="0.988235" style="stop-opacity:1; stop-color:#D1EDF8"/>
   <stop offset="1" style="stop-opacity:1; stop-color:#D1EDF8"/>
  </linearGradient>
  <linearGradient id="id5" gradientUnits="userSpaceOnUse" x1="162.57" y1="31.16" x2="155.02" y2="31.16">
   <stop offset="0" style="stop-opacity:1; stop-color:#4DBAC6"/>
   <stop offset="0.301961" style="stop-opacity:1; stop-color:#4DBAC6"/>
   <stop offset="0.388235" style="stop-opacity:1; stop-color:#55BDC9"/>
   <stop offset="0.54902" style="stop-opacity:1; stop-color:#6EC6D2"/>
   <stop offset="0.74902" style="stop-opacity:1; stop-color:#95D6E1"/>
   <stop offset="0.968627" style="stop-opacity:1; stop-color:#CBEBF6"/>
   <stop offset="0.988235" style="stop-opacity:1; stop-color:#D1EDF8"/>
   <stop offset="1" style="stop-opacity:1; stop-color:#D1EDF8"/>
  </linearGradient>
  <linearGradient id="id6" gradientUnits="userSpaceOnUse" x1="173.12" y1="20.15" x2="173.12" y2="42.09">
   <stop offset="0" style="stop-opacity:1; stop-color:#39628A"/>
   <stop offset="0.109804" style="stop-opacity:1; stop-color:#386791"/>
   <stop offset="0.270588" style="stop-opacity:1; stop-color:#3777A5"/>
   <stop offset="0.470588" style="stop-opacity:1; stop-color:#3691C5"/>
   <stop offset="0.478431" style="stop-opacity:1; stop-color:#3693C8"/>
   <stop offset="1" style="stop-opacity:1; stop-color:#4DBAC6"/>
  </linearGradient>
  <linearGradient id="id7" gradientUnits="userSpaceOnUse" x1="7.87" y1="59.17" x2="7.87" y2="24.55">
   <stop offset="0" style="stop-opacity:1; stop-color:#0B4369"/>
   <stop offset="0.509804" style="stop-opacity:1; stop-color:#3693C8"/>
   <stop offset="1" style="stop-opacity:1; stop-color:#4DBAC6"/>
  </linearGradient>
  <linearGradient id="id8" gradientUnits="userSpaceOnUse" xlink:href="#id6" x1="-15103.3" y1="29225.37" x2="-10903.98" y2="16590.27">
  </linearGradient>
  <linearGradient id="id9" gradientUnits="userSpaceOnUse" x1="175.06" y1="2.72" x2="173.33" y2="2.72">
   <stop offset="0" style="stop-opacity:1; stop-color:#3693C8"/>
   <stop offset="1" style="stop-opacity:1; stop-color:#4DBAC6"/>
  </linearGradient>
 </defs>
 <g id="Слой_x0020_1">
  <metadata id="CorelCorpID_0Corel-Layer"/>
  <polygon class="fil0" points="16.36,59.42 0,59.42 0,24.8 7.91,24.8 7.91,27.91 3.11,27.91 3.11,56.32 16.36,56.32 "/>
  <polygon class="fil1" points="100,59.42 82.18,59.42 82.18,56.32 96.89,56.32 96.89,27.91 90.92,27.91 90.92,24.8 100,24.8 "/>
  <path class="fil2" d="M27.93 53.23l0 2.16 -4.14 0 0 1.43 1.23 0c0.63,0 1.16,0.06 1.59,0.2 0.43,0.14 0.78,0.33 1.05,0.58 0.27,0.24 0.47,0.55 0.59,0.9 0.12,0.35 0.18,0.74 0.18,1.16 0,0.45 -0.06,0.86 -0.19,1.22 -0.12,0.36 -0.32,0.68 -0.6,0.93 -0.27,0.26 -0.63,0.46 -1.08,0.6 -0.44,0.14 -0.98,0.21 -1.61,0.21l-3.9 0 0 -9.39 6.88 0 0 0zm-3.16 7.31c0.37,0 0.63,-0.06 0.78,-0.2 0.15,-0.13 0.22,-0.36 0.22,-0.68 0,-0.32 -0.07,-0.55 -0.22,-0.67 -0.14,-0.12 -0.41,-0.19 -0.79,-0.19l-0.99 0 0 1.74 1 0 0 0z"/>
  <polygon class="fil2" points="36.28,53.23 36.28,55.46 32.44,55.46 32.44,56.88 35.19,56.88 35.19,58.82 32.44,58.82 32.44,60.43 36.4,60.43 36.4,62.62 29.7,62.62 29.7,53.23 "/>
  <path class="fil2" d="M41.69 53.23c0.56,0 1.05,0.08 1.49,0.23 0.44,0.16 0.81,0.38 1.11,0.66 0.3,0.29 0.53,0.63 0.69,1.03 0.16,0.4 0.24,0.85 0.24,1.34 0,0.49 -0.08,0.94 -0.22,1.34 -0.15,0.39 -0.37,0.74 -0.65,1.02 -0.28,0.28 -0.62,0.5 -1.03,0.66 -0.41,0.15 -0.88,0.23 -1.39,0.23l-1.54 0 0 2.88 -2.74 0 0 -9.39 4.04 0zm-1.3 4.54l1.2 0c0.33,0 0.56,-0.1 0.7,-0.3 0.13,-0.2 0.2,-0.51 0.2,-0.93 0,-0.41 -0.07,-0.73 -0.2,-0.92 -0.14,-0.2 -0.37,-0.3 -0.7,-0.3l-1.2 0 0 2.45z"/>
  <path class="fil2" d="M53.76 62.62l-2.73 0 0 -7.24 -1.71 0 -0.14 2.29c-0.07,1.02 -0.18,1.85 -0.35,2.5 -0.16,0.66 -0.38,1.17 -0.64,1.55 -0.26,0.37 -0.58,0.63 -0.93,0.77 -0.36,0.14 -0.76,0.22 -1.21,0.22 -0.2,0 -0.39,-0.02 -0.56,-0.04 -0.17,-0.03 -0.34,-0.06 -0.49,-0.1l0 -1.65 0.26 0c0.22,0 0.41,-0.04 0.56,-0.13 0.15,-0.09 0.28,-0.25 0.38,-0.5 0.09,-0.24 0.17,-0.59 0.23,-1.04 0.06,-0.45 0.12,-1.03 0.16,-1.75l0.27 -4.27 6.9 0 0 9.39 0 0z"/>
  <path class="fil2" d="M59.15 53.1c0.65,0 1.22,0.08 1.72,0.26 0.5,0.18 0.93,0.43 1.27,0.75 0.35,0.33 0.61,0.71 0.78,1.16 0.18,0.45 0.27,0.94 0.27,1.49l0 2.32c0,0.54 -0.09,1.04 -0.27,1.49 -0.17,0.44 -0.43,0.83 -0.78,1.16 -0.34,0.32 -0.77,0.57 -1.27,0.75 -0.5,0.17 -1.07,0.26 -1.72,0.26 -0.64,0 -1.22,-0.09 -1.71,-0.26 -0.5,-0.18 -0.92,-0.43 -1.27,-0.75 -0.34,-0.33 -0.6,-0.72 -0.78,-1.16 -0.18,-0.45 -0.26,-0.95 -0.26,-1.49l0 -2.32c0,-0.55 0.08,-1.04 0.26,-1.49 0.18,-0.45 0.44,-0.83 0.78,-1.16 0.35,-0.32 0.77,-0.57 1.27,-0.75 0.49,-0.18 1.06,-0.26 1.71,-0.26zm1.31 3.66c0,-0.55 -0.1,-0.95 -0.3,-1.18 -0.21,-0.24 -0.54,-0.36 -1.01,-0.36 -0.46,0 -0.79,0.12 -0.99,0.35 -0.2,0.24 -0.3,0.63 -0.3,1.18l0 2.33c0,0.59 0.1,1.01 0.3,1.25 0.2,0.25 0.53,0.37 0.99,0.37 0.46,0 0.8,-0.12 1.01,-0.37 0.2,-0.24 0.3,-0.66 0.3,-1.25l0 -2.32z"/>
  <polygon class="fil2" points="70.53,53.23 70.53,55.46 67.22,55.46 67.22,62.62 64.55,62.62 64.55,53.23 "/>
  <path class="fil2" d="M72.48 62.62l-2.75 0 3.16 -9.39 3.06 0 3.16 9.39 -2.78 0 -0.46 -1.65 -2.94 0 -0.45 1.65zm0.97 -3.55l1.89 0 -0.94 -3.41 -0.03 0 -0.92 3.41 0 0z"/>
  <path class="fil3" d="M76.37 20.18c0,0 -2.43,1.79 4.46,7.53l2.88 2.45c0,0 1.77,6.5 3.19,8.14 0.64,0.75 2.65,3.34 0.83,3.88 0,0 -2.05,0.14 -2.77,-0.03 -0.42,-0.1 -0.64,-0.24 -1.38,-1.3l-4.83 -5.57 -9.54 -6.28m7.16 -8.82l0 0 0 0z"/>
  <path class="fil4" d="M91.17 14.05c-0.7,-0.49 -2.63,-2.26 -2.63,-2.26 0,0 -0.46,-1.87 -0.62,-2.46 -0.39,-1.43 -0.48,-3.37 -3.54,-4.97 0,0 1.2,-3.37 -1,-4.03 -0.39,-0.12 -0.77,0 -1.16,0.36 -0.43,0.4 -0.87,1.1 -1.35,2.13l-0.81 0.03c0,0 -0.19,-2.67 -2.23,-2.84 -0.91,-0.08 -2.04,0.68 -2.36,2.8 0,0 -0.97,-0.7 -1.08,-0.71 -0.12,0 -0.83,-0.03 -0.83,-0.03 0,0 0.31,0.54 -0.07,0.59 -0.26,0.04 -1.45,-0.5 -1.45,-0.5 0,0 0.56,0.82 -2.04,0.33 -1.31,-0.24 -5.52,-0.4 -5.52,-0.4 0,0 -3.42,2.64 -5.09,2.95 -4.83,0.89 -10.17,1.28 -17.8,-0.44 -1.95,-0.44 -8.94,-2.11 -8.94,-2.11 0,0 -12.47,3.9 -15.82,7.67 -0.22,0.25 3.64,0.03 3.42,0.28 -1.58,1.76 -3.07,3.67 -3.42,9.41 -0.23,3.83 -0.13,8.74 -4.98,14.55 0,0 -6.57,8.29 -3.38,13.27 0,0 0.05,0.81 1.1,0.8 1.26,-0.02 3.16,-0.22 8.07,0.01 0,0 0.84,-1.37 -1.57,-2.02 0,0 -3.13,-1.28 -1.47,-4.02 0,0 4.6,-1.26 5.82,-3.57 0,0 1.4,-4.58 2.54,-4.73 0.9,-0.11 1.67,0.29 2.23,2.87 0.43,1.91 1.1,5.19 1.92,7.6 0.45,1.34 1.4,3.8 4.08,3.86l9 0c0,0 1.6,-0.8 -0.45,-1.63 0,0 -2.87,-0.95 -3.74,-1.53 -0.79,-0.52 -1.62,-1.79 -1.68,-3.83 0,0 0.13,-2.72 1.28,-4.41 0.99,-1.45 2.43,-4.27 2.68,-6.5 0,0 6.57,1.29 10.72,1.08 0.24,-0.01 0.52,-0.02 0.84,-0.04 2.51,-0.11 7.23,-0.29 7.4,-0.4 0,0 -0.2,8.48 5.35,14.93 0,0 1.95,2.34 3.74,2.34 2.02,0.01 8.12,0 8.12,0 0,0 0.39,-1.07 -0.94,-1.32 -1.77,-0.32 -5.03,-1.15 -5.36,-4.79 -0.4,-4.2 -1.2,-10.29 4.01,-16.4 1.19,-1.38 4.26,-2.88 4.35,-2.97 0.19,-0.15 0.33,-2.51 0.53,-2.66 0.95,-0.69 2.08,-1.18 3.52,-1.64l0.33 -0.11 5.26 0.42c0,0 2.59,0.43 3.3,-0.25 0.48,-0.45 1.73,-1.98 1.73,-1.98 0,0 1.45,-1.72 0,-2.74l-0.01 0.01zm-0.7 2.38c-0.68,-0.38 -0.73,-0.99 -0.73,-0.99l0.7 -1.06c0,0 0.57,0.41 0.61,0.67 0.11,0.66 -0.58,1.38 -0.58,1.38l0 0z"/>
  <path class="fil5" d="M19.14 25.43c0,0 -2.84,-0.11 -2.85,-0.05 -0.61,2.99 -1.67,6 -4.44,9.03 -2.38,2.59 -6.05,10.16 -3.3,13.66 0.49,0.63 0.68,0.38 9.04,0.42 0.01,-0.02 0.94,-1.23 -1.53,-2.02 -1.09,-0.35 -2.75,-1.84 -1.47,-4.02l4.68 -0.95c1.09,-2.35 1.01,-2.35 1.17,-2.68 0.4,-0.84 1.12,-2.49 1.61,-3.69 0.28,-0.69 1.9,-0.43 2.28,-0.42 0,0 -2.17,-5.78 -4.99,-9.06 -0.4,-0.47 -0.19,-0.22 -0.19,-0.22l-0.01 0z"/>
  <path class="fil6" d="M61.08 21.76c0,0 -5.07,2.17 -6.04,6.12 0,0 1.85,-0.7 2.51,0 0,0 -1.36,0.38 -1.78,1.5 0,0 1.05,-0.35 1.5,-0.18 0,0 -2.16,2.9 -2.44,5.17 0,0 0.8,-0.59 4.44,6.43l3.1 -6.43c0,0 -3.56,-7.81 -1.29,-12.61l0 0z"/>
  <path class="fil7" d="M75.55 7.09c0,0 -2.25,1.14 -2.58,2.97 0,0 0.82,-0.37 1.15,-0.07 0,0 -0.61,0.22 -0.77,0.74 0,0 0.47,-0.19 0.68,-0.13 0,0 -0.9,1.39 -0.97,2.44 0,0 0.43,1.29 3.57,2.37l-2.08 -2.67c0,0 1.49,-2.06 1,-5.65l0 0z"/>
  <path class="fil8" d="M35.24 44.58c0,0 -5.53,-1.71 -6.51,-5.65 0,0 1.85,0.7 2.52,0 0,0 -1.37,-0.39 -1.78,-1.5 0,0 1.04,0.35 1.5,0.17 0,0 -2.17,-2.89 -2.45,-5.16 0,0 5.56,-1.98 4.89,-10.68 0,0 5.3,5.56 4.85,8.82 -0.78,5.73 -6.07,8.56 -3.03,14.01l0.01 -0.01z"/>
  <rect class="fil9" transform="matrix(0.707107 -0.707107 0.707107 0.707107 81.7837 10.1335)" width="1.47" height="1.47"/>
  <path class="fil10" d="M81.77 3.29c0,0 0.39,-1.39 1.25,-1.38 0.5,0 1.06,0.34 0.78,1.82 -0.07,0.38 -0.49,-0.76 -2.03,-0.44z"/>
  <path class="fil11" d="M76.66 3.52c0,0 -0.22,-1.79 0.78,-2.19 0.57,-0.23 1.37,-0.12 1.76,1.73 0.1,0.46 -0.93,-0.64 -2.54,0.46z"/>
  <path class="fil12" d="M6.09 67.74c0.47,-0.29 1.17,-0.55 2.13,-0.55 1.49,0 2.37,0.75 2.37,1.75 0,0.85 -0.58,1.42 -1.37,1.61l0 0.02c0.85,0.11 1.59,0.7 1.59,1.61 0,1.53 -1.53,2.06 -2.8,2.06 -0.71,0 -1.48,-0.15 -2.05,-0.48l0.32 -1.19c0.31,0.16 1.02,0.41 1.66,0.41 0.78,0 1.25,-0.33 1.25,-0.9 0,-0.75 -0.79,-0.9 -1.43,-0.9l-0.64 0 0 -1.13 0.63 0c0.7,0 1.23,-0.32 1.23,-0.86 0,-0.46 -0.38,-0.75 -1.03,-0.75 -0.53,0 -1.12,0.2 -1.5,0.39l-0.36 -1.09 0 0z"/>
  <path class="fil12" d="M16.31 69.17l0 3.87 0.55 0.02 -0.06 2.66 -1.17 0 -0.05 -1.6 -3.13 0 -0.06 1.6 -1.16 0 -0.04 -2.64 0.46 -0.04c0.2,-0.32 0.38,-0.67 0.49,-1.03 0.14,-0.52 0.22,-1.08 0.22,-1.62l0 -1.22 3.95 0 0 0zm-2.61 1.71c0,0.41 -0.08,0.86 -0.19,1.28 -0.07,0.3 -0.2,0.59 -0.34,0.85l1.64 0 0 -2.71 -1.11 0 0 0.58z"/>
  <path class="fil12" d="M18.86 72.14c0.05,0.64 0.68,0.94 1.4,0.94 0.52,0 0.95,-0.07 1.36,-0.21l0.2 1.04c-0.5,0.21 -1.12,0.32 -1.79,0.32 -1.68,0 -2.64,-0.98 -2.64,-2.53 0,-1.25 0.79,-2.64 2.5,-2.64 1.6,0 2.21,1.25 2.21,2.47 0,0.27 -0.03,0.5 -0.05,0.61l-3.19 0 0 0zm1.81 -1.05c0,-0.38 -0.16,-1.01 -0.86,-1.01 -0.66,0 -0.92,0.6 -0.96,1.01l1.82 0 0 0z"/>
  <path class="fil12" d="M26.74 74c-0.27,0.13 -0.79,0.23 -1.38,0.23 -1.6,0 -2.62,-0.98 -2.62,-2.54 0,-1.43 0.99,-2.62 2.84,-2.62 0.4,0 0.85,0.08 1.17,0.2l-0.24 1.14c-0.19,-0.08 -0.46,-0.15 -0.86,-0.15 -0.81,0 -1.34,0.58 -1.33,1.38 0,0.91 0.6,1.39 1.35,1.39 0.37,0 0.65,-0.06 0.88,-0.16l0.19 1.13 0 0z"/>
  <path class="fil12" d="M29.12 69.17l0 1.47c0.21,-0.03 0.51,-0.06 0.78,-0.06 1.15,0 2.37,0.41 2.37,1.73 0,0.62 -0.27,1.05 -0.68,1.33 -0.63,0.44 -1.61,0.55 -2.36,0.55 -0.57,0 -1.13,-0.03 -1.65,-0.09l0 -4.92 1.54 0 0 -0.01zm-0.01 3.94c0.13,0.02 0.28,0.04 0.52,0.04 0.5,0 1.11,-0.18 1.11,-0.78 0,-0.59 -0.66,-0.74 -1.13,-0.74 -0.2,0 -0.36,0.01 -0.5,0.04l0 1.44 0 0z"/>
  <path class="fil12" d="M35.24 69.23c0.37,-0.06 1.22,-0.13 1.99,-0.13 0.84,0 2.45,0.1 2.45,1.27 0,0.64 -0.51,0.97 -1.01,1.06l0 0.03c0.74,0.12 1.22,0.53 1.22,1.21 0,1.4 -1.91,1.53 -2.92,1.53 -0.69,0 -1.42,-0.05 -1.73,-0.09l0 -4.88 0 0zm1.5 4.02c0.17,0.02 0.29,0.02 0.52,0.02 0.53,0 1.06,-0.16 1.06,-0.64 0,-0.44 -0.41,-0.63 -1.14,-0.63l-0.43 0 0 1.24 -0.01 0.01zm0.01 -2.14l0.4 0c0.62,0 1.01,-0.16 1.01,-0.54 0,-0.32 -0.27,-0.51 -0.89,-0.51 -0.2,0 -0.34,0.01 -0.51,0.03l0 1.02 -0.01 0z"/>
  <path class="fil12" d="M45 72.93c0,0.47 0.02,0.92 0.08,1.2l-1.39 0 -0.09 -0.5 -0.03 0c-0.32,0.39 -0.83,0.61 -1.42,0.61 -1,0 -1.6,-0.73 -1.6,-1.52 0,-1.29 1.16,-1.9 2.91,-1.9l0 -0.06c0,-0.26 -0.14,-0.64 -0.9,-0.64 -0.51,0 -1.04,0.18 -1.37,0.37l-0.28 -0.98c0.34,-0.19 1.02,-0.45 1.92,-0.45 1.66,0 2.17,0.97 2.17,2.14l0 1.73 0 0zm-1.49 -1.14c-0.81,0 -1.44,0.19 -1.44,0.78 0,0.39 0.27,0.59 0.61,0.59 0.37,0 0.7,-0.26 0.8,-0.57 0.02,-0.08 0.03,-0.17 0.03,-0.27l0 -0.53z"/>
  <path class="fil12" d="M46.4 69.17l1.96 0 0.54 1.88c0.08,0.29 0.22,0.8 0.32,1.24l0.03 0c0.1,-0.34 0.26,-0.88 0.4,-1.35l0.55 -1.77 1.94 0 0.31 4.96 -1.43 0 -0.08 -1.99c-0.01,-0.42 -0.04,-1.14 -0.05,-1.73l-0.03 0c-0.2,0.66 -0.23,0.82 -0.48,1.62l-0.66 2.02 -1.12 0 -0.59 -1.97c-0.13,-0.47 -0.29,-1.17 -0.4,-1.64l-0.05 0c-0.01,0.62 -0.03,1.32 -0.05,1.73l-0.08 1.96 -1.38 0 0.35 -4.96 0 0z"/>
  <polygon class="fil12" points="60.13,69.17 60.13,74.13 58.59,74.13 58.59,70.36 57.07,70.36 57.07,74.13 55.53,74.13 55.53,69.17 "/>
  <path class="fil12" d="M63.65 74.24c-1.45,0 -2.56,-0.95 -2.56,-2.55 0,-1.61 1.05,-2.63 2.65,-2.63 1.51,0 2.52,1.05 2.52,2.55 0,1.8 -1.28,2.63 -2.6,2.63l-0.01 0 0 0zm0.04 -1.11c0.61,0 0.98,-0.59 0.98,-1.49 0,-0.73 -0.28,-1.47 -0.98,-1.47 -0.7,0 -1.01,0.74 -1.01,1.48 0,0.84 0.35,1.48 1,1.48l0.01 0z"/>
  <path class="fil12" d="M67.39 69.17l1.96 0 0.54 1.88c0.08,0.29 0.23,0.8 0.33,1.24l0.03 0c0.09,-0.34 0.25,-0.88 0.39,-1.35l0.55 -1.77 1.95 0 0.3 4.96 -1.43 0 -0.08 -1.99c-0.01,-0.42 -0.04,-1.14 -0.05,-1.73l-0.03 0c-0.19,0.66 -0.22,0.82 -0.48,1.62l-0.65 2.02 -1.13 0 -0.59 -1.97c-0.13,-0.47 -0.29,-1.17 -0.4,-1.64l-0.04 0c-0.02,0.62 -0.03,1.32 -0.05,1.73l-0.08 1.96 -1.38 0 0.34 -4.96 0 0z"/>
  <path class="fil12" d="M76.73 74.24c-1.45,0 -2.56,-0.95 -2.56,-2.55 0,-1.61 1.05,-2.63 2.65,-2.63 1.51,0 2.52,1.05 2.52,2.55 0,1.8 -1.29,2.63 -2.6,2.63l-0.01 0 0 0zm0.04 -1.11c0.61,0 0.98,-0.59 0.98,-1.49 0,-0.73 -0.28,-1.47 -0.98,-1.47 -0.7,0 -1.01,0.74 -1.01,1.48 0,0.84 0.35,1.48 1,1.48l0.01 0z"/>
  <polygon class="fil12" points="83.74,69.17 83.74,70.37 81.82,70.37 81.82,74.13 80.28,74.13 80.28,69.17 "/>
  <path class="fil12" d="M85.8 69.17l0.74 2.45c0.08,0.28 0.18,0.65 0.24,0.92l0.03 0c0.08,-0.28 0.16,-0.64 0.23,-0.93l0.6 -2.43 1.66 0 -1.16 3.26c-0.71,1.97 -1.18,2.75 -1.74,3.25 -0.53,0.46 -1.1,0.64 -1.49,0.68l-0.32 -1.3c0.19,-0.04 0.43,-0.13 0.66,-0.26 0.24,-0.13 0.5,-0.38 0.64,-0.62 0.05,-0.08 0.08,-0.16 0.08,-0.22 0,-0.06 -0.01,-0.14 -0.06,-0.25l-1.82 -4.54 1.71 0 0 -0.01z"/>
  <polygon class="fil12" points="93.99,69.17 93.99,70.36 92.55,70.36 92.55,74.12 91.01,74.12 91.01,70.36 89.57,70.36 89.57,69.17 "/>
 </g>
</svg>
